<svg aria-hidden="true" style="width:0;height:0;position:absolute;overflow:hidden" xmlns="http://www.w3.org/2000/svg"><defs><symbol id="icon-film" viewBox="0 0 32 32"><path fill="none" stroke="#fff" stroke-linecap="round" stroke-linejoin="round" stroke-width="2" d="M26.427 2.667H5.574a2.907 2.907 0 0 0-2.907 2.907v20.853a2.907 2.907 0 0 0 2.907 2.907h20.853a2.907 2.907 0 0 0 2.907-2.907V5.574a2.907 2.907 0 0 0-2.907-2.907zm-17.093 0v26.667M22.666 2.667v26.667M2.667 16h26.667M2.667 9.333h6.667M2.667 22.667h6.667m13.332 0h6.667M22.666 9.333h6.667" style="stroke:var(--color1,#fff)"/></symbol><svg id="icon-search" viewBox="0 0 16 16" fill="none" xmlns="http://www.w3.org/2000/svg"><path d="M7.333 12.667A5.333 5.333 0 1 0 7.333 2a5.333 5.333 0 0 0 0 10.667ZM14 14l-2.9-2.9" stroke="#000" stroke-linecap="round" stroke-linejoin="round"/></svg></defs></svg>